<?xml version="1.0" encoding="utf-8"?>
<!-- Generator: Adobe Illustrator 25.2.1, SVG Export Plug-In . SVG Version: 6.00 Build 0)  -->
<svg version="1.1" xmlns="http://www.w3.org/2000/svg" xmlns:xlink="http://www.w3.org/1999/xlink" x="0px" y="0px"
	 viewBox="0 0 270 270" style="enable-background:new 0 0 270 270;" xml:space="preserve">
<style type="text/css">
	.st0{fill:none;stroke:#FFF;stroke-width:3;stroke-linecap:round;stroke-linejoin:round;}
	.st1{fill:none;stroke:#FFF;stroke-width:3;stroke-linecap:round;stroke-miterlimit:10;}
	.st2{fill:none;stroke:#FFF;stroke-width:3;stroke-linecap:round;stroke-linejoin:round;stroke-miterlimit:10;}
	.st3{fill:none;stroke:#FFF;stroke-width:3;stroke-linecap:round;stroke-linejoin:round;stroke-miterlimit:9.9998;}
	.st4{fill:none;stroke:#FFF;stroke-width:3;stroke-linecap:round;stroke-linejoin:round;stroke-miterlimit:3;}
	.st5{fill:none;stroke:#FFF;stroke-linecap:round;stroke-miterlimit:10;}
	.st6{fill:none;stroke:#FFF;stroke-width:3;stroke-linecap:square;}
	.st7{fill:none;stroke:#FFF;stroke-width:3;}
	.st8{fill:none;stroke:#FFF;stroke-width:3;stroke-linejoin:round;}
	.st9{fill:none;stroke:#FFF;stroke-width:3;stroke-miterlimit:10;}
	.st10{fill:#FFFFFF;stroke:#FFF;stroke-width:3;stroke-linecap:round;stroke-linejoin:round;stroke-miterlimit:10;}
	.st11{fill:none;stroke:#FFF;stroke-width:2;stroke-linecap:round;stroke-linejoin:round;}
</style>
<g id="Layer_1">
</g>
<g id="icons">
</g>
<g id="Circle">
	<g id="Layer_2_15_">
		<g id="Layer_1-2_14_">
			<line class="st1" x1="157.5" y1="35.4" x2="228.7" y2="103.6"/>
			<path class="st1" d="M201.5,18.8l0.8-0.8c2.5-2.6,6.6-2.7,9.2-0.2l32.3,30.8c2.6,2.5,2.7,6.6,0.2,9.2l-0.8,0.8
				c-2.5,2.6-6.6,2.7-9.2,0.2L201.7,28C199.1,25.5,199,21.4,201.5,18.8z"/>
			<line class="st1" x1="212.5" y1="38.3" x2="187.5" y2="64.1"/>
			<line class="st1" x1="222.8" y1="49.2" x2="199.2" y2="73.6"/>
			<path class="st1" d="M214.8,90.3L113.6,194c-10.9,11.1-28.8,11.3-40,0.5l0,0c-11.1-10.9-11.3-28.8-0.5-40l99.6-105.2"/>
			<line class="st1" x1="151.9" y1="71.1" x2="167.5" y2="86.2"/>
			<line class="st1" x1="140" y1="83.8" x2="151" y2="94.6"/>
			<line class="st1" x1="127.5" y1="96.9" x2="143.1" y2="111.9"/>
			<line class="st1" x1="115.7" y1="109.4" x2="157.5" y2="149"/>
			<line class="st1" x1="103.3" y1="122.5" x2="119" y2="137.2"/>
			<line class="st1" x1="91.7" y1="134.8" x2="102.6" y2="145.7"/>
			<line class="st1" x1="79.2" y1="148" x2="94.9" y2="162.6"/>
			<path class="st1" d="M87,202.9l-9.3,10.5c-2,2.2-5.3,2.4-7.5,0.5l-14-12.3c-2.2-2-2.4-5.3-0.5-7.5l9.3-10.5
				c0.4-0.4,0.8-0.7,1.2-1"/>
			<line class="st1" x1="61.9" y1="206.6" x2="21.9" y2="249.8"/>
		</g>
	</g>
</g>
</svg>
